<?xml version="1.0" encoding="UTF-8" standalone="no"?>
<!DOCTYPE svg PUBLIC "-//W3C//DTD SVG 20010904//EN"
              "http://www.w3.org/TR/2001/REC-SVG-20010904/DTD/svg10.dtd">

<svg xmlns="http://www.w3.org/2000/svg"
     width="7.81111in" height="7.73333in"
     viewBox="0 0 703 696">
  <path id="Selection"
        fill="none" stroke="black" stroke-width="1"
        d="M 444.00,80.00
           C 437.61,83.62 431.42,85.81 424.00,85.99
             415.32,86.19 406.22,84.22 399.00,79.23
             392.71,74.88 387.57,68.94 384.32,62.00
             372.23,36.18 386.82,0.05 418.00,0.00
             422.23,-0.01 431.33,-0.33 435.00,0.61
             448.76,4.14 460.82,18.09 463.00,32.00
             463.00,32.00 491.00,35.12 491.00,35.12
             493.83,34.41 502.24,26.30 506.00,23.75
             515.87,17.02 525.63,13.11 537.00,9.72
             565.05,1.36 586.44,1.96 615.00,2.00
             633.64,2.03 665.77,7.56 683.00,14.60
             695.20,19.59 704.01,30.18 701.54,44.00
             699.56,55.03 692.50,61.30 684.00,67.88
             684.00,67.88 645.00,95.45 645.00,95.45
             621.22,114.37 611.00,134.75 593.11,158.00
             593.11,158.00 561.17,193.00 561.17,193.00
             561.17,193.00 502.17,257.00 502.17,257.00
             502.17,257.00 386.09,383.00 386.09,383.00
             386.09,383.00 344.91,428.00 344.91,428.00
             344.91,428.00 314.17,461.00 314.17,461.00
             314.17,461.00 272.96,506.00 272.96,506.00
             265.83,513.45 258.35,520.75 250.00,526.84
             250.00,526.84 234.00,536.81 234.00,536.81
             225.25,542.25 213.09,552.49 206.09,560.00
             189.97,577.30 184.47,590.80 172.58,610.00
             159.99,630.32 149.02,645.79 133.42,664.00
             124.08,674.91 107.26,691.73 93.00,695.39
             90.26,696.10 87.79,696.00 85.00,696.00
             85.00,696.00 51.00,696.00 51.00,696.00
             43.45,695.91 39.53,693.77 33.00,690.21
             11.75,678.62 1.11,654.51 1.00,631.00
             1.00,631.00 1.00,619.00 1.00,619.00
             1.07,572.14 25.37,521.97 54.00,486.00
             64.06,473.37 80.20,456.08 92.00,445.09
             92.00,445.09 108.00,431.00 108.00,431.00
             98.83,425.89 101.77,431.73 87.00,435.52
             76.03,438.34 63.69,437.04 54.00,430.91
             47.79,426.98 43.35,422.45 39.79,416.00
             30.51,399.14 31.95,377.46 45.17,363.01
             62.99,343.54 94.65,345.86 110.07,367.00
             114.55,373.14 116.95,380.53 118.00,388.00
             125.53,386.17 129.65,387.64 140.00,384.25
             147.30,381.86 151.52,378.12 157.00,375.93
             162.55,373.71 165.50,374.63 169.00,372.40
             172.45,370.20 176.36,365.11 179.17,362.00
             179.17,362.00 195.28,345.00 195.28,345.00
             195.28,345.00 208.91,331.00 208.91,331.00
             208.91,331.00 233.04,305.00 233.04,305.00
             233.04,305.00 302.09,232.00 302.09,232.00
             302.09,232.00 313.91,220.00 313.91,220.00
             313.91,220.00 347.96,184.00 347.96,184.00
             347.96,184.00 357.01,174.00 357.01,174.00
             357.01,174.00 399.96,129.00 399.96,129.00
             399.96,129.00 412.00,116.00 412.00,116.00
             412.00,116.00 429.00,98.00 429.00,98.00
             434.38,92.59 440.76,87.00 444.00,80.00 Z
           M 453.00,30.00
           C 449.49,11.61 426.26,2.95 410.00,9.48
             396.62,14.85 387.53,29.63 388.51,44.00
             389.25,54.74 393.36,63.78 402.00,70.47
             407.78,74.94 413.76,76.90 421.00,77.25
             423.77,77.38 427.29,77.09 430.00,76.49
             436.34,75.07 446.15,70.97 438.61,63.53
             433.13,58.13 420.79,60.19 420.04,46.00
             419.45,34.69 425.39,27.59 437.00,28.04
             437.00,28.04 453.00,30.00 453.00,30.00 Z
           M 115.00,439.00
           C 108.94,440.76 104.49,445.73 100.00,449.97
             100.00,449.97 88.01,461.00 88.01,461.00
             88.01,461.00 77.99,472.00 77.99,472.00
             41.65,509.42 13.76,559.26 9.91,612.00
             9.91,612.00 9.00,622.00 9.00,622.00
             8.90,630.96 9.66,641.43 12.35,650.00
             14.33,656.32 16.18,660.54 20.04,666.00
             22.61,669.64 25.37,672.61 29.00,675.21
             55.42,694.15 88.92,673.88 107.91,653.99
             127.21,633.78 143.17,610.62 157.95,587.00
             168.69,569.85 173.59,557.57 188.09,542.00
             197.17,532.25 206.06,524.46 217.00,516.88
             231.49,506.85 238.05,505.37 251.96,491.00
             251.96,491.00 294.17,445.00 294.17,445.00
             294.17,445.00 325.83,411.00 325.83,411.00
             325.83,411.00 389.09,342.00 389.09,342.00
             389.09,342.00 494.17,228.00 494.17,228.00
             494.17,228.00 540.28,178.00 540.28,178.00
             540.28,178.00 578.35,136.00 578.35,136.00
             598.42,109.97 608.41,88.86 637.00,69.02
             637.00,69.02 676.00,43.10 676.00,43.10
             679.34,40.56 686.74,34.45 686.92,30.02
             687.17,23.94 673.71,20.12 669.00,18.72
             652.77,13.88 635.79,12.06 619.00,10.91
             619.00,10.91 607.00,10.00 607.00,10.00
             581.50,9.96 557.35,11.68 533.00,20.00
             523.65,23.20 509.09,30.26 503.00,38.00
             506.73,38.17 517.27,40.38 519.70,39.41
             522.09,38.46 526.24,32.68 529.01,30.33
             535.65,24.71 545.35,21.38 554.00,21.04
             577.34,20.12 593.74,38.31 594.00,61.00
             594.25,82.92 583.35,103.92 560.00,107.56
             552.91,108.67 540.19,103.94 536.09,106.61
             536.09,106.61 524.42,119.00 524.42,119.00
             524.42,119.00 507.17,138.00 507.17,138.00
             501.59,144.15 496.81,149.60 488.00,150.69
             482.55,151.36 473.29,148.42 468.00,146.67
             460.30,144.11 450.22,141.44 448.62,132.00
             447.52,125.50 452.91,118.82 454.95,113.00
             456.83,107.32 455.75,102.69 454.95,97.00
             454.95,97.00 447.00,92.00 447.00,92.00
             447.00,92.00 413.91,127.00 413.91,127.00
             413.91,127.00 378.91,164.00 378.91,164.00
             378.91,164.00 350.09,194.00 350.09,194.00
             350.09,194.00 273.91,275.00 273.91,275.00
             273.91,275.00 204.83,348.00 204.83,348.00
             204.83,348.00 179.00,376.00 179.00,376.00
             183.58,379.77 186.84,382.14 188.89,388.00
             190.62,392.95 189.92,401.34 196.04,403.62
             198.96,404.70 209.72,399.92 214.00,399.30
             230.34,396.94 247.39,405.12 254.73,420.00
             266.87,444.64 251.46,481.73 223.00,485.70
             211.20,487.35 200.49,480.93 191.00,475.00
             191.00,475.00 176.42,492.00 176.42,492.00
             173.31,495.63 169.75,499.91 165.00,501.35
             160.09,502.83 154.59,500.31 150.00,498.69
             150.00,498.69 119.00,487.18 119.00,487.18
             114.82,484.95 111.02,481.17 111.98,476.00
             113.13,469.88 122.21,464.25 123.69,459.00
             125.02,454.27 117.41,443.30 115.00,439.00 Z
           M 564.00,31.00
           C 549.37,26.84 532.99,32.98 526.33,47.00
             522.89,54.22 522.96,59.30 523.00,67.00
             523.06,79.54 529.13,90.97 541.00,96.12
             544.43,97.61 548.33,99.03 552.00,98.00
             535.81,85.15 535.90,58.76 548.04,43.01
             554.11,35.14 556.93,35.66 564.00,31.00 Z
           M 517.00,48.00
           C 517.00,48.00 448.00,37.92 448.00,37.92
             440.79,36.74 426.21,33.00 428.24,45.98
             429.40,53.36 436.12,50.17 443.96,57.21
             448.78,61.55 450.67,66.77 451.72,73.00
             453.12,81.34 451.87,89.76 463.00,90.61
             472.04,91.30 479.51,83.97 486.00,78.81
             494.95,71.68 502.32,67.26 514.00,67.00
             514.00,67.00 517.00,48.00 517.00,48.00 Z
           M 567.00,38.33
           C 551.71,42.09 546.94,56.91 547.00,71.00
             547.06,83.62 553.97,98.04 569.00,94.61
             574.54,93.34 577.88,88.71 580.49,84.00
             588.02,70.40 590.10,35.97 567.00,38.33 Z
           M 693.00,39.00
           C 693.00,39.00 675.00,53.97 675.00,53.97
             658.10,65.52 640.11,75.00 625.00,89.09
             612.08,101.14 599.17,121.39 588.58,136.00
             581.41,145.89 573.23,155.08 564.91,164.00
             564.91,164.00 553.09,176.00 553.09,176.00
             553.09,176.00 365.09,380.00 365.09,380.00
             365.09,380.00 294.17,457.00 294.17,457.00
             294.17,457.00 262.99,491.00 262.99,491.00
             256.33,497.82 249.66,504.82 242.00,510.52
             226.25,522.25 218.83,523.28 201.00,540.09
             184.45,555.69 174.39,575.94 162.58,595.00
             147.56,619.23 126.09,648.85 105.00,667.83
             96.72,675.29 87.35,681.77 77.00,685.99
             77.00,685.99 61.00,691.00 61.00,691.00
             61.00,691.00 70.00,691.00 70.00,691.00
             94.31,690.96 109.83,677.17 125.16,660.00
             139.99,643.40 153.24,625.03 164.80,606.00
             174.90,589.37 183.74,571.35 197.09,557.00
             204.82,548.69 213.71,540.26 223.00,533.72
             237.67,523.40 248.68,519.03 261.91,505.00
             261.91,505.00 316.09,446.00 316.09,446.00
             316.09,446.00 474.91,274.00 474.91,274.00
             474.91,274.00 533.91,210.00 533.91,210.00
             533.91,210.00 553.01,189.00 553.01,189.00
             553.01,189.00 564.04,177.00 564.04,177.00
             571.89,168.80 579.82,161.04 586.77,152.00
             608.58,123.59 615.13,106.62 646.00,83.88
             646.00,83.88 679.00,60.60 679.00,60.60
             687.28,53.98 692.72,50.34 693.00,39.00 Z
           M 565.00,54.74
           C 580.31,51.43 581.70,75.07 570.98,79.26
             563.36,82.25 558.08,76.10 557.34,69.00
             556.67,62.59 559.42,57.72 565.00,54.74 Z
           M 568.00,61.00
           C 564.03,65.19 564.20,67.74 566.00,73.00
             572.11,69.73 571.41,66.21 568.00,61.00 Z
           M 530.00,99.00
           C 524.67,95.10 521.63,90.92 518.79,85.00
             517.60,82.53 516.00,76.64 513.58,75.61
             510.24,74.19 502.00,77.97 499.00,79.68
             496.56,81.06 492.63,83.34 491.77,86.17
             490.28,91.05 496.62,99.01 488.79,106.67
             485.29,110.10 479.87,112.51 475.00,112.91
             472.19,113.14 466.71,112.50 464.49,114.02
             462.69,115.26 460.26,120.86 459.31,123.00
             458.25,125.40 456.65,129.18 457.64,131.79
             459.24,136.03 470.78,139.00 475.00,140.12
             479.64,141.34 485.27,142.83 490.00,141.35
             496.89,139.20 510.00,123.00 515.28,117.00
             520.21,111.41 526.83,105.75 530.00,99.00 Z
           M 484.00,92.00
           C 475.66,96.01 473.87,98.54 464.00,99.00
             467.86,109.65 480.88,103.44 483.31,99.79
             484.82,97.53 484.17,94.56 484.00,92.00 Z
           M 109.00,387.00
           C 107.94,380.15 105.36,374.29 100.68,369.09
             97.15,365.17 91.95,361.87 87.00,360.09
             82.14,358.34 77.14,357.56 72.00,358.30
             55.00,360.74 42.88,375.00 42.10,392.00
             41.28,409.93 55.73,427.54 74.00,427.99
             84.08,428.23 87.29,426.96 96.00,422.00
             89.93,414.29 78.64,410.53 74.72,404.91
             69.21,397.00 75.55,383.44 85.00,382.26
             85.00,382.26 109.00,387.00 109.00,387.00 Z
           M 178.00,444.00
           C 166.88,445.72 159.78,451.71 155.34,462.00
             152.26,469.14 153.71,475.14 149.78,476.83
             145.34,478.75 144.25,473.10 144.61,470.00
             145.44,462.83 148.47,455.77 152.76,450.00
             156.86,444.49 161.69,440.59 168.00,437.88
             171.98,436.17 177.80,436.11 179.75,431.87
             179.75,431.87 184.51,420.00 184.51,420.00
             185.62,417.99 188.58,414.02 188.85,412.00
             189.31,408.56 186.12,406.67 183.92,402.00
             180.90,395.60 182.93,382.37 168.00,382.34
             159.70,382.33 154.20,388.14 147.00,390.93
             137.05,394.79 125.61,396.12 115.00,396.00
             109.41,395.93 102.43,394.76 97.00,393.37
             94.78,392.80 88.83,390.83 87.02,390.95
             83.74,391.15 81.61,393.83 81.28,396.96
             80.68,402.59 92.88,408.12 97.00,411.16
             109.29,420.21 123.30,433.88 129.56,448.00
             131.69,452.80 134.94,462.85 134.85,468.00
             134.76,473.70 130.34,476.06 127.00,470.00
             122.93,472.95 121.44,474.09 120.00,479.00
             120.00,479.00 150.00,489.81 150.00,489.81
             153.84,491.26 159.90,493.91 163.96,492.40
             167.46,491.10 173.32,483.11 176.00,480.00
             178.29,477.34 184.23,471.41 184.27,468.00
             184.30,465.98 181.37,460.55 180.52,458.00
             179.20,454.04 178.56,448.24 178.00,444.00 Z
           M 234.00,410.00
           C 219.99,406.85 207.38,405.18 196.47,417.17
             180.76,434.43 183.67,470.06 210.00,475.00
             207.22,470.03 204.75,466.78 203.52,461.00
             200.27,445.80 206.24,428.23 218.00,418.21
             224.64,412.55 228.60,413.21 234.00,410.00 Z
           M 235.00,418.34
           C 217.06,421.43 209.81,437.24 210.00,454.00
             210.13,464.94 216.83,475.49 229.00,474.20
             243.70,472.64 251.97,447.85 250.27,435.00
             248.98,425.32 246.30,418.13 235.00,418.34 Z
           M 229.00,434.74
           C 248.09,430.31 244.11,462.06 229.00,459.76
             219.10,458.25 217.41,440.94 229.00,434.74 Z
           M 233.00,441.00
           C 227.71,444.51 227.48,447.44 230.00,453.00
             234.80,449.00 235.52,446.72 233.00,441.00 Z
           M 211.00,475.00
           C 211.00,475.00 210.00,475.00 210.00,475.00
             210.00,475.00 211.00,476.00 211.00,476.00
             211.00,476.00 211.00,475.00 211.00,475.00 Z" />
</svg>
